<svg width="24" height="24" viewBox="0 0 24 24" fill="none" xmlns="http://www.w3.org/2000/svg">
<g id="pinterest" clip-path="url(#clip0_2_284)">
<path id="Vector" d="M12.326 0C5.747 0.001 2.25 4.216 2.25 8.812C2.25 10.943 3.441 13.602 5.348 14.445C5.892 14.69 5.82 14.391 6.288 12.601C6.325 12.452 6.306 12.323 6.186 12.184C3.46 9.031 5.654 2.549 11.937 2.549C21.03 2.549 19.331 15.131 13.519 15.131C12.021 15.131 10.905 13.955 11.258 12.5C11.686 10.767 12.524 8.904 12.524 7.655C12.524 4.507 7.834 4.974 7.834 9.145C7.834 10.434 8.29 11.304 8.29 11.304C8.29 11.304 6.781 17.4 6.501 18.539C6.027 20.467 6.565 23.588 6.612 23.857C6.641 24.005 6.807 24.052 6.9 23.93C7.049 23.735 8.873 21.133 9.384 19.252C9.57 18.567 10.333 15.787 10.333 15.787C10.836 16.695 12.286 17.455 13.831 17.455C18.427 17.455 21.749 13.415 21.749 8.402C21.733 3.596 17.62 0 12.326 0V0Z" fill="white"/>
</g>
<defs>
<clipPath id="clip0_2_284">
<rect width="24" height="24" fill="white"/>
</clipPath>
</defs>
</svg>
